<svg xmlns="http://www.w3.org/2000/svg" width="434.643" height="317.944" viewBox="653.034 700.993 434.643 317.944">
  <g fill="#BCBCBB">
    <path d="M653.034 1008.701h8.323v-28.637h-8.323v28.637zm0-32.197h8.323v-6.51h-8.323v6.51zM669.43 999.064c2.304 2.247 5.147 3.937 8.32 3.937 2.026 0 5.097-.653 5.097-2.786 0-.983-.6-1.37-1.097-1.644-1.257-.657-3.23-.827-4.873-1.094-1.257-.223-2.573-.5-3.834-.876-1.753-.497-3.506-1.207-4.76-2.471-1.263-1.253-2.137-3.227-2.137-5.363 0-4.706 4.054-9.58 12.047-9.58 6.73 0 10.787 2.904 12.757 4.277l-5.203 4.816c-2.681-2.083-5.204-2.85-7.174-2.85-3.286 0-4.05 1.312-4.05 2.133 0 1.644 1.807 1.97 4.547 2.464 5.75 1.04 12.427 2.579 12.427 9.366 0 6.73-6.787 10.017-13.527 10.017-7.933 0-12.04-3.833-13.853-5.53l5.313-4.816zM697.213 971.854h8.377v8.923h5.527v5.15h-5.58v12.863c-.057 1.75-.057 3.233 2.187 3.233l3.013-.11v6.563c-1.81.276-2.906.437-4.437.437-2.896 0-6.08-.16-7.883-2.79-1.15-1.693-1.204-3.723-1.204-6.46V985.87h-4.163v-5.15h4.163v-8.866zM714.944 969.994h8.319v6.51h-8.319v-6.51zm0 10.07h8.319v28.637h-8.319v-28.637zM730.612 971.854h8.377v8.923h5.53v5.15h-5.58v12.863c-.061 1.75-.061 3.233 2.189 3.233l3.007-.11v6.563c-1.8.276-2.9.437-4.434.437-2.903 0-6.073-.16-7.883-2.79-1.153-1.693-1.207-3.723-1.207-6.46V985.87h-4.16v-5.15h4.16v-8.866zM765.213 980.115h8.426v28.586h-8.426v-2.739c-.824.927-1.316 1.473-2.854 2.243-1.693.873-3.557 1.31-5.417 1.31-1.863 0-5.31-.273-7.286-3.007-1.471-2.076-1.75-3.776-1.75-8.433v-17.96h8.49v17.743c0 1.257 0 2.52.656 3.396.496.656 1.644 1.423 3.336 1.423.497 0 1.641 0 2.9-.717 1.813-1.09 1.867-2.516 1.924-4.046v-17.799zM780.955 971.854h8.377v8.923h5.53v5.15h-5.583v12.863c-.054 1.75-.054 3.233 2.187 3.233l3.01-.11v6.563c-1.807.276-2.9.437-4.434.437-2.903 0-6.073-.16-7.883-2.79-1.153-1.693-1.204-3.723-1.204-6.46V985.87h-4.159v-5.15h4.159v-8.866zM826.902 994.352c0 7.229-4.16 15.163-15.33 15.163-8.051 0-15.384-4.594-15.384-15.163 0-8.757 5.526-15.707 16.477-15.107 11.667.652 14.237 9.903 14.237 15.107m-20.81-5.641c-1.037 1.65-1.42 3.62-1.42 5.59 0 4.544 2.193 8.544 6.9 8.544 4.546 0 6.789-3.674 6.789-8.16 0-3.173-.77-5.64-2.356-7.173-1.753-1.644-3.724-1.7-4.927-1.584-2.406.163-3.836.98-4.986 2.783"/>
  </g>
  <g fill="#FFF">
    <path d="M839.535 983.131c.986-1.146 3.166-3.724 8.096-3.724 4.721 0 6.41 1.757 7.943 3.337 1.641-1.363 3.94-3.337 8.484-3.337 4.706 0 7.123 2.357 7.989 4.107.72 1.529.776 3.503.776 6.569v18.617h-8.326v-15.004c0-1.643 0-3.776-.33-4.877-.764-2.406-3.007-2.566-3.67-2.566-.816 0-1.91.214-2.733.87-1.593 1.264-1.593 2.903-1.593 6.023v15.554h-8.317v-16.924c0-1.257-.057-2.957-.823-4.047-.66-.876-1.92-1.477-3.279-1.477-.657 0-1.541.16-2.301.653-1.866 1.261-1.916 3.561-1.916 5.534v16.26h-8.327v-28.53h8.327v2.962zM877.244 988.229c.167-1.977.43-4.33 3.01-6.356 2.631-2.087 6.027-2.517 9.363-2.517 3.507 0 11.987.813 11.987 8.21v16.644c0 3.063.167 3.503.826 4.49h-8.27v-2.631c-2.137 1.594-4.544 3.397-8.764 3.397-6.563 0-9.363-4.704-9.363-8.707 0-4.593 3.677-7.224 6.03-8.21 2.297-.986 7.72-1.97 11.276-2.627v-1.536c-.106-1.313-.217-3.504-3.227-3.504-3.727 0-4.217 2.301-4.44 3.347h-8.428zm10.677 8.586c-1.42.55-3.616 1.367-3.616 3.563 0 1.366 1.199 2.9 3.176 2.9 1.041 0 2.027-.387 2.897-.934 2.8-1.754 2.909-4.377 2.963-7.334l-5.42 1.805zM914.408 983.077c1.87-1.59 3.884-2.851 8.264-3.29v7.453l-2.793.44c-4.044.706-5.25 1.307-5.25 4.927v16.093h-8.431v-28.637h8.21v3.014zM925.479 988.229c.163-1.977.437-4.33 3.021-6.356 2.619-2.087 6.016-2.517 9.359-2.517 3.5 0 11.983.813 11.983 8.21v16.644c0 3.063.17 3.503.83 4.49h-8.267v-2.631c-2.137 1.594-4.547 3.397-8.764 3.397-6.576 0-9.363-4.704-9.363-8.707 0-4.593 3.67-7.224 6.023-8.21 2.311-.986 7.727-1.97 11.283-2.627v-1.536c-.113-1.313-.227-3.504-3.24-3.504-3.723 0-4.213 2.301-4.423 3.347h-8.442zm10.68 8.586c-1.427.55-3.603 1.367-3.603 3.563 0 1.366 1.193 2.9 3.166 2.9 1.04 0 2.03-.387 2.907-.934 2.786-1.754 2.896-4.377 2.956-7.334l-5.426 1.805zM963.025 982.694c.811-.88 1.356-1.53 2.844-2.25 1.319-.547 3.173-1.037 5.196-1.037 1.703 0 3.616.327 5.1 1.147 3.007 1.593 3.771 4.159 3.771 8.597v19.55h-8.373v-16.094c0-2.58-.051-3.514-.384-4.273-.653-1.536-2.137-2.189-3.78-2.189-4.439 0-4.439 3.557-4.439 7.109v15.447h-8.43v-28.53h8.496v2.523zM1002.962 1004.921c-1.65 1.097-3.67 2.41-7.547 2.41-2.351 0-4.66-.606-6.521-1.86-3.833-2.47-5.31-6.899-5.31-11.833 0-5.743 2.681-14.017 12.15-14.017 4.387 0 6.403 1.927 7.666 3.123v-2.684h7.891v27.487c-.12 3.123-.23 6.796-4.391 9.196-2.896 1.753-7.166 2.193-9.727 2.193-5.706 0-9.423-1.97-10.96-3.566-2.253-2.233-2.193-5.137-2.193-6.67h8.717c.097 1.26.217 3.062 2.45 4.103.547.273 1.37.547 2.677.547 5.097 0 5.097-3.007 5.097-5.366v-3.063zm-10.684-11.333c0 2.406.18 7.393 5.366 7.393 4.28 0 5.268-3.336 5.268-7.393 0-1.37-.11-4.214-1.037-5.584-.663-1.04-2.193-2.193-4.6-2.076-3.994.163-4.997 3.606-4.997 7.66M1045.598 994.352c0 7.229-4.16 15.163-15.324 15.163-8.057 0-15.393-4.594-15.393-15.163 0-8.757 5.536-15.707 16.483-15.107 11.659.652 14.234 9.903 14.234 15.107m-20.804-5.641c-1.04 1.65-1.427 3.62-1.427 5.59 0 4.544 2.197 8.544 6.906 8.544 4.541 0 6.78-3.674 6.78-8.16 0-3.173-.763-5.64-2.356-7.173-1.746-1.644-3.713-1.7-4.924-1.584-2.402.163-3.835.98-4.979 2.783M1057.787 982.694c.812-.88 1.363-1.53 2.836-2.25 1.313-.547 3.177-1.037 5.207-1.037 1.707 0 3.606.327 5.084 1.147 3.02 1.593 3.783 4.159 3.783 8.597v19.55h-8.381v-16.094c0-2.58-.043-3.514-.376-4.273-.663-1.536-2.141-2.189-3.773-2.189-4.446 0-4.446 3.557-4.446 7.109v15.447h-8.427v-28.53h8.493v2.523zM1079.363 969.994h8.313v6.51h-8.313v-6.51zm0 10.07h8.313v28.637h-8.313v-28.637z"/>
  </g>
  <path fill="#FFF" d="M953.974 700.993c-45.847 0-86.25 23.27-110.106 58.64h9.106v12.85c4.294-5.003 13.823-16.206 35.28-16.206 20.49 0 27.893 7.63 34.56 14.533 7.146-5.953 17.163-14.533 36.937-14.533 20.49 0 30.993 10.25 34.793 17.87 3.08 6.676 3.32 15.25 3.32 28.609v81.026h-36.189v-65.296c0-7.15 0-16.453-1.438-21.23-3.336-10.483-13.086-11.173-15.953-11.173-3.616 0-8.343.927-11.96 3.807-6.89 5.483-6.89 12.609-6.89 26.21v67.683H889.21v-73.649c0-5.477-.223-12.877-3.587-17.62-2.843-3.837-8.343-6.43-14.293-6.43-2.859 0-6.666.689-10.017 2.856-8.103 5.479-8.34 15.477-8.34 24.057v70.786h-21.87c19.78 48.44 67.33 82.61 122.87 82.61 73.31 0 132.732-59.427 132.732-132.687.001-73.304-59.422-132.713-132.731-132.713"/>
</svg>
